<svg width="14" height="16" viewBox="0 0 14 16" fill="none" xmlns="http://www.w3.org/2000/svg">
<path d="M12.625 2.75H1.375M8.5 8V11.75M5.5 8V11.75M1.87424 6.61505C1.80722 5.74386 2.49605 5 3.36981 5H10.6301C11.504 5 12.1928 5.74385 12.1258 6.61505L11.6065 13.365C11.5464 14.1465 10.8947 14.75 10.1109 14.75H3.88904C3.10524 14.75 2.45358 14.1465 2.39346 13.365L1.87424 6.61505ZM5.5 1.25C5.5 0.83579 5.83578 0.5 6.25 0.5H7.75C8.16422 0.5 8.5 0.83579 8.5 1.25V2.75H5.5V1.25Z" stroke="#CDCDCD" stroke-linecap="round"/>
</svg>
